<svg id="Layer_1" data-name="Layer 1" xmlns="http://www.w3.org/2000/svg" viewBox="0 0 512 512"><defs><style>.cls-1{fill:#141f38;}</style></defs><title>wheel-cart-outline</title><path class="cls-1" d="M499.94,86.36A57.22,57.22,0,0,0,454.37,64H89.95L76.42,9.71A12.79,12.79,0,0,0,64,0H12.8a12.8,12.8,0,1,0,0,25.6H54l97.71,392a51.19,51.19,0,1,0,77.07,56H347.22a51.2,51.2,0,1,0,0-25.6H228.78a51.29,51.29,0,0,0-49.58-38.4c-1,0-2.06,0-3.08.11L163.33,358.4H407.83a57.61,57.61,0,0,0,55.75-43.12l46.55-179.2A57.24,57.24,0,0,0,499.94,86.36ZM396.8,435.2a25.6,25.6,0,1,1-25.6,25.6A25.63,25.63,0,0,1,396.8,435.2Zm-192,25.6a25.6,25.6,0,1,1-25.6-25.6A25.63,25.63,0,0,1,204.8,460.8Zm234-152a32,32,0,0,1-31,24H157.34l-16-64H449.2Zm17-65.64H135l-16-64H472.48Zm29.49-113.56-6.22,24H112.68l-16-64H454.37a32,32,0,0,1,31,40Z"/></svg>